<?xml version="1.0" standalone="no"?>
<!DOCTYPE svg PUBLIC "-//W3C//DTD SVG 20010904//EN"
 "http://www.w3.org/TR/2001/REC-SVG-20010904/DTD/svg10.dtd">
<svg version="1.0" xmlns="http://www.w3.org/2000/svg"
 width="626.000000pt" height="500.000000pt" viewBox="0 0 626.000000 500.000000"
 preserveAspectRatio="xMidYMid meet">

<g transform="translate(0.000000,500.000000) scale(0.100000,-0.100000)"
fill="#000000" stroke="none">
<path d="M3026 4709 c-98 -10 -216 -40 -318 -79 -91 -35 -162 -39 -278 -14
-90 19 -255 14 -340 -12 -117 -34 -221 -94 -301 -174 -70 -69 -144 -180 -119
-180 5 0 27 24 48 53 52 69 155 164 224 205 148 88 322 113 507 72 123 -26
149 -24 286 30 178 69 210 75 410 74 151 0 192 -3 255 -21 174 -49 270 -98
469 -241 30 -22 79 -47 110 -57 90 -28 152 -64 207 -120 55 -57 101 -138 110
-196 5 -29 14 -39 50 -58 24 -13 75 -56 112 -95 102 -108 153 -227 168 -396 7
-84 -11 -256 -29 -278 -9 -12 -8 -17 7 -26 30 -17 66 -54 66 -67 0 -21 -58
-66 -107 -81 l-48 -16 3 -47 c2 -33 -3 -56 -17 -81 -12 -19 -21 -42 -21 -50 0
-23 -15 -16 -35 19 -14 22 -19 46 -17 78 5 66 -41 239 -91 342 -27 55 -38 87
-30 87 7 0 13 9 13 19 0 15 -10 21 -42 26 -88 15 -150 54 -163 102 -4 19 0 29
20 45 18 14 25 28 23 46 -4 37 -24 38 -59 3 -88 -89 -331 -84 -471 9 -56 37
-141 124 -144 147 -15 107 -15 163 -1 215 8 32 12 60 8 63 -18 10 -44 -74 -50
-160 l-6 -90 -22 28 c-12 15 -24 33 -26 40 -2 7 -7 9 -11 6 -3 -3 5 -27 17
-52 l24 -46 -46 -15 c-116 -36 -149 -30 -195 38 -13 19 -15 18 -52 -12 -21
-17 -59 -38 -83 -47 -59 -20 -188 -29 -284 -18 -75 9 -111 2 -66 -12 19 -6 20
-8 5 -23 -14 -15 -17 -14 -31 3 -15 19 -16 19 -37 -10 -12 -16 -41 -49 -65
-72 -39 -39 -48 -43 -91 -43 -41 0 -53 5 -77 30 -16 17 -36 29 -43 28 -9 -2
-22 -33 -33 -76 -10 -40 -33 -101 -51 -135 -41 -78 -146 -184 -218 -219 -156
-77 -342 -77 -498 -2 -29 15 -56 23 -59 20 -18 -18 136 -94 220 -108 91 -15
88 -12 66 -55 -10 -20 -19 -43 -19 -50 0 -17 -10 -16 -34 2 -42 32 -49 13 -8
-21 23 -20 42 -42 42 -49 0 -8 7 -18 15 -22 8 -5 21 -28 30 -52 30 -87 14
-159 -46 -197 -40 -25 -50 -48 -26 -57 8 -3 20 -1 28 4 8 5 20 9 27 9 14 0 16
-36 2 -45 -18 -11 -10 -25 14 -25 34 0 50 -25 50 -77 1 -38 -3 -49 -27 -66
-21 -16 -30 -18 -39 -9 -7 7 -34 12 -61 12 -40 0 -54 5 -76 28 l-28 27 -54
-25 c-45 -21 -69 -25 -144 -25 -78 0 -98 4 -153 29 -84 39 -160 121 -193 207
-34 91 -34 236 0 329 45 124 135 232 256 310 93 60 90 55 51 109 -99 134 -117
299 -48 444 30 65 112 163 155 186 20 11 26 23 30 64 4 41 10 56 36 79 18 16
45 31 62 35 42 8 46 23 7 23 -53 0 -96 -33 -124 -96 -13 -30 -24 -58 -24 -62
0 -4 -30 -39 -68 -77 -110 -114 -149 -221 -139 -385 5 -89 32 -178 68 -224
l19 -25 -54 -36 c-113 -75 -223 -217 -266 -345 -43 -124 -28 -314 33 -411 79
-129 190 -192 339 -192 65 -1 85 4 136 29 l59 29 18 -23 c22 -30 81 -55 109
-48 12 3 32 3 45 -1 21 -5 23 -9 17 -57 -13 -101 32 -224 91 -251 22 -9 39
-45 22 -45 -22 0 -88 41 -112 70 -28 32 -35 60 -40 150 -3 50 -3 49 -5 -15 -3
-114 33 -169 135 -210 27 -11 43 -24 47 -40 9 -36 92 -121 141 -144 47 -22 48
-26 16 -66 -15 -18 -15 -19 2 -6 26 21 20 0 -20 -65 -139 -226 -165 -288 -167
-395 -1 -67 3 -83 34 -144 41 -80 75 -125 97 -125 21 0 9 45 -23 83 -19 23
-24 40 -24 85 0 107 31 187 130 342 62 97 100 183 100 226 0 23 6 19 45 -34
106 -140 295 -237 546 -279 102 -17 118 -31 43 -40 -115 -12 -299 -199 -386
-391 -39 -85 -60 -186 -49 -233 5 -21 5 -43 0 -50 -15 -23 -10 -66 11 -102
l21 -35 -23 -6 c-13 -3 -193 -6 -400 -6 -240 0 -379 -4 -383 -10 -4 -7 122
-10 372 -10 421 -1 483 -4 528 -31 16 -11 40 -19 51 -19 18 0 24 -11 38 -66
49 -195 167 -310 371 -361 56 -14 112 -18 275 -18 182 1 214 3 283 23 202 58
327 174 372 347 8 33 15 76 15 97 l0 38 78 1 c95 1 145 17 62 19 -73 3 -119
13 -102 23 18 12 15 62 -6 80 -10 9 -51 22 -91 29 -65 11 -76 16 -92 42 -22
36 -16 49 16 34 15 -6 38 -7 62 -2 21 4 50 7 65 5 33 -3 74 34 84 75 9 35 -18
140 -54 213 -56 112 -191 231 -349 307 -51 24 -95 49 -98 54 -3 5 14 14 37 20
252 63 454 183 527 311 26 47 41 54 41 20 0 -8 29 -71 64 -140 75 -149 116
-258 116 -310 0 -48 -17 -98 -36 -105 -18 -7 -18 -36 0 -36 25 0 73 49 91 92
12 29 18 69 18 123 -1 90 -21 162 -80 279 l-35 71 33 -30 c19 -16 59 -52 89
-80 76 -69 31 -17 -58 69 -79 75 -108 120 -118 185 -6 40 -5 43 40 82 26 23
60 67 76 99 26 52 36 84 54 170 3 14 19 33 35 43 19 11 42 41 62 82 17 35 40
72 50 81 50 45 39 168 -25 292 -15 30 -15 32 20 92 32 53 36 66 31 105 -5 36
-4 45 9 45 22 0 90 37 114 62 30 33 26 81 -9 110 l-28 24 13 65 c34 162 10
372 -59 509 -39 79 -134 178 -203 213 -47 24 -52 30 -58 68 -11 68 -57 149
-121 215 -65 66 -111 94 -219 130 -45 16 -96 44 -150 85 -207 157 -549 248
-820 218z m430 -947 c6 -4 25 -29 43 -55 103 -152 319 -229 513 -183 l57 13 6
-26 c11 -53 102 -120 162 -121 14 0 25 -9 31 -27 6 -16 23 -57 38 -93 35 -83
74 -225 74 -267 l0 -33 -47 36 c-128 98 -404 191 -678 229 -151 21 -523 16
-685 -10 -351 -55 -634 -175 -853 -362 -119 -103 -246 -275 -216 -294 21 -14
-9 -31 -32 -18 -26 13 -31 26 -14 32 11 5 12 12 4 37 -6 16 -17 30 -25 30 -12
0 -11 6 3 33 28 53 24 151 -10 211 -30 54 -33 84 -15 151 11 41 15 45 48 50
159 23 239 57 332 143 77 72 133 157 160 245 16 55 23 67 37 62 35 -15 104
-17 142 -5 25 9 57 32 83 61 27 30 54 49 75 54 18 4 41 15 51 25 17 17 26 18
87 9 104 -15 219 4 285 47 l37 24 37 -25 c28 -19 50 -25 91 -25 54 0 153 33
153 51 0 11 11 11 26 1z m-370 -654 c2 -48 11 -122 19 -165 17 -86 72 -260 85
-268 5 -3 -2 26 -15 64 -32 94 -56 218 -60 305 -2 39 -6 80 -10 91 -5 14 0 12
16 -9 80 -102 156 -177 239 -236 28 -20 42 -60 21 -60 -5 0 -36 18 -70 41 -68
45 -119 100 -162 174 -16 28 -29 45 -29 39 0 -6 17 -37 38 -70 83 -127 205
-207 343 -224 85 -10 191 -41 196 -57 2 -6 -15 -12 -39 -15 -48 -6 -150 -48
-131 -55 6 -2 28 3 50 12 21 9 72 18 113 21 l75 3 -75 -14 c-86 -17 -120 -29
-172 -63 -44 -29 -57 -58 -34 -80 13 -13 21 -14 53 -4 20 6 38 10 40 8 2 -1
-5 -18 -14 -37 -10 -20 -19 -65 -21 -107 -5 -89 13 -144 64 -195 29 -28 32
-35 15 -30 -37 10 -22 -14 19 -31 54 -21 135 -20 186 3 46 21 65 41 39 41 -12
0 -6 12 22 44 22 25 45 62 51 84 25 83 9 177 -40 229 -25 27 -12 29 37 6 28
-14 38 -14 48 -4 19 20 -71 96 -139 118 -36 11 -54 22 -54 33 0 9 -18 52 -39
96 -21 43 -37 82 -34 87 11 17 43 4 67 -28 15 -19 45 -69 68 -112 23 -43 43
-80 45 -82 1 -2 14 1 28 7 19 9 25 19 25 42 0 16 5 30 11 30 16 0 7 129 -12
170 -9 19 -20 46 -24 60 -6 23 -5 22 12 -5 44 -69 95 -166 90 -171 -3 -3 -13
8 -21 24 -9 17 -22 34 -28 38 -12 7 0 -15 37 -68 6 -10 15 -15 20 -10 5 4 5 2
2 -4 -4 -7 11 -49 32 -95 59 -125 64 -158 57 -327 -3 -81 -9 -171 -12 -199 -6
-56 8 -73 26 -30 13 30 28 187 24 262 -3 73 12 95 67 95 80 0 126 -74 116
-188 -13 -139 -73 -249 -158 -292 -48 -25 -49 -25 -49 6 0 14 -4 23 -10 19 -5
-3 -10 -19 -10 -35 0 -15 -9 -57 -20 -92 -68 -220 -299 -350 -793 -448 -76
-15 -72 -36 6 -32 54 4 57 2 67 -23 5 -14 10 -30 10 -35 0 -17 -50 -68 -103
-104 l-54 -37 -49 29 c-27 16 -69 40 -93 53 -59 32 -69 50 -48 83 16 24 22 26
97 26 44 0 80 4 80 9 0 5 -42 12 -92 16 -391 29 -640 115 -791 274 -86 90
-156 257 -157 374 0 19 -4 27 -12 24 -17 -6 -13 -136 6 -199 7 -26 11 -49 8
-52 -3 -4 -21 -6 -41 -6 -41 0 -100 32 -131 72 -105 135 -93 393 22 466 37 23
48 21 48 -12 0 -33 47 -207 59 -219 22 -22 23 25 3 106 -12 45 -26 123 -32
173 -10 85 -10 93 9 125 33 54 52 99 46 109 -3 5 8 16 25 25 16 8 29 19 28 23
-1 4 46 54 103 112 58 58 124 133 147 166 40 60 44 63 126 93 97 35 203 63
325 85 94 18 114 19 107 8 -10 -16 15 -222 38 -313 24 -97 72 -216 82 -207 3
4 -10 53 -30 109 -42 124 -76 286 -76 361 0 58 5 71 27 66 10 -2 15 -28 19
-90z m468 -52 c31 -43 54 -81 51 -84 -3 -3 -9 -1 -14 4 -20 22 -133 188 -139
203 -8 22 35 -30 102 -123z m247 3 c16 -25 29 -49 29 -52 0 -19 -21 -1 -53 46
-20 29 -50 66 -66 81 -17 16 -28 33 -24 38 7 13 77 -56 114 -113z m193 21 c-6
-28 -5 -30 25 -30 17 0 31 -4 31 -10 0 -5 -17 -10 -37 -10 -35 0 -36 -1 -17
-15 15 -11 16 -14 4 -15 -20 0 -105 86 -92 94 5 3 19 -6 32 -19 21 -23 48 -26
34 -4 -8 13 3 39 15 39 6 0 8 -13 5 -30z m-94 -31 c0 -6 -4 -7 -10 -4 -5 3
-10 11 -10 16 0 6 5 7 10 4 6 -3 10 -11 10 -16z m33 -32 c7 -7 21 -24 32 -37
18 -22 16 -22 -11 3 -17 15 -33 25 -36 22 -3 -3 -8 1 -11 10 -8 18 10 20 26 2z
m-23 -48 c0 -6 -4 -7 -10 -4 -5 3 -10 11 -10 16 0 6 5 7 10 4 6 -3 10 -11 10
-16z m458 -44 c75 -85 119 -242 109 -385 -3 -44 -12 -92 -22 -111 -24 -46 -65
-94 -65 -76 0 8 9 22 20 32 33 30 53 110 47 186 -7 87 -66 263 -112 334 -19
31 -35 58 -35 60 0 16 23 -1 58 -40z m-531 -41 c-3 -3 -12 -4 -19 -1 -8 3 -5
6 6 6 11 1 17 -2 13 -5z m62 -68 c6 -34 11 -69 11 -77 -1 -24 -28 34 -35 74
-5 27 -11 37 -21 33 -17 -7 -18 -1 -2 23 19 31 36 13 47 -53z m-212 27 c10
-16 27 -45 36 -66 29 -64 -4 -39 -41 31 -33 62 -30 86 5 35z m-186 -41 c-5 -2
-28 2 -50 8 -28 7 -39 15 -35 25 5 11 14 10 50 -8 25 -12 41 -23 35 -25z m446
-4 c-3 -7 -5 -2 -5 12 0 14 2 19 5 13 2 -7 2 -19 0 -25z m592 -228 c0 -25 -4
-52 -9 -60 -7 -10 -10 8 -10 60 0 41 -2 86 -5 100 -3 14 2 7 9 -15 8 -22 15
-60 15 -85z m-819 -45 c18 -21 6 -83 -21 -111 -40 -42 -109 -23 -109 29 0 29
9 42 50 72 39 29 62 32 80 10z m-1867 -212 c-4 -44 0 -72 17 -118 11 -33 24
-71 27 -85 6 -25 6 -25 -15 -6 -46 40 -77 234 -41 257 8 5 15 9 16 9 0 0 -1
-26 -4 -57z m1643 -888 c23 -35 27 -92 11 -150 -11 -41 -17 -49 -33 -45 -10 3
-47 5 -81 5 l-62 0 44 40 c48 44 67 83 65 130 -3 43 -2 45 20 45 11 0 27 -11
36 -25z m-516 -40 c0 -40 35 -85 91 -117 42 -23 50 -38 21 -38 -11 0 -37 -13
-60 -29 l-40 -30 -23 52 c-14 33 -24 80 -27 129 -4 74 -4 77 17 71 16 -4 21
-13 21 -38z m724 -69 c95 -62 163 -128 215 -206 58 -87 59 -96 14 -84 -18 5
-22 11 -17 30 7 28 -10 54 -36 54 -10 0 -27 -16 -39 -35 -25 -43 -66 -48 -100
-11 -13 14 -38 32 -55 40 -29 14 -34 23 -50 93 -10 43 -28 104 -41 135 l-22
56 25 -9 c14 -5 61 -34 106 -63z m-860 4 c-13 -32 -32 -104 -41 -159 l-18
-100 -78 -90 c-59 -69 -85 -91 -103 -91 -38 0 -86 -24 -123 -61 l-33 -34 7 55
c9 71 47 165 103 260 72 119 242 279 299 280 7 0 3 -21 -13 -60z m45 -71 c-11
-34 -22 -85 -25 -114 -6 -51 -6 -53 25 -69 17 -9 46 -24 64 -33 27 -15 59 -18
197 -18 92 0 196 6 235 13 113 21 185 44 195 61 5 10 3 41 -6 81 -22 98 -27
143 -16 169 8 22 11 17 26 -46 27 -107 56 -276 69 -386 l11 -99 -33 -26 -33
-25 -332 2 c-182 1 -376 -3 -430 -9 -55 -5 -101 -9 -103 -7 -8 8 52 213 66
223 11 9 11 13 1 19 -9 6 -9 9 0 15 6 4 16 43 21 86 12 99 26 164 52 234 l21
55 7 -33 c4 -22 0 -54 -12 -93z m62 -69 c18 -38 37 -70 43 -70 6 0 18 13 28
29 18 33 52 58 96 70 23 7 39 4 71 -12 l41 -21 0 -73 c0 -40 -3 -73 -7 -73 -5
0 -57 5 -118 10 -83 8 -123 17 -163 36 -48 23 -53 29 -48 53 3 14 8 47 12 74
3 26 8 47 10 47 2 0 18 -31 35 -70z m586 18 c-3 -7 -5 -2 -5 12 0 14 2 19 5
13 2 -7 2 -19 0 -25z m-79 -4 c12 -8 22 -19 22 -25 0 -6 9 -9 20 -6 17 4 20 0
20 -28 0 -27 4 -34 23 -37 34 -6 -96 -45 -193 -58 -45 -6 -85 -8 -89 -5 -3 4
-6 39 -6 78 l0 72 65 17 c68 18 100 16 138 -8z m248 -145 c31 -30 32 -33 20
-68 -14 -39 -11 -60 11 -77 12 -10 11 -17 -3 -48 -22 -45 -44 -47 -44 -3 0 17
-5 52 -11 76 -11 49 -18 151 -10 151 3 0 20 -14 37 -31z m182 24 c-46 -98 -78
-145 -78 -114 0 15 64 121 73 121 5 0 7 -3 5 -7z m-90 -80 c-2 -10 -10 -17
-16 -15 -15 3 -15 -21 0 -36 15 -15 4 -26 -17 -19 -19 8 -19 36 1 65 18 26 37
29 32 5z m152 -10 c17 -14 36 -37 40 -49 12 -30 -6 -81 -32 -95 -18 -10 -19
-8 -12 13 14 46 6 82 -26 111 -17 15 -28 32 -25 37 10 16 21 12 55 -17z
m-1209 -83 c-14 -44 -28 -80 -31 -80 -3 1 -13 12 -23 26 -18 24 -18 24 29 79
25 30 48 55 49 55 2 0 -9 -36 -24 -80z m1169 33 c36 -46 2 -113 -59 -113 l-26
0 30 24 c39 31 26 44 -20 21 -20 -9 -38 -15 -41 -13 -2 2 14 22 36 43 22 22
40 45 40 52 0 21 17 15 40 -14z m-1235 -114 c9 -28 5 -30 -56 -31 -30 0 -67
-7 -82 -15 -33 -17 -57 -67 -57 -120 l0 -37 -22 21 c-29 30 -26 77 9 126 37
53 85 77 150 77 43 0 53 -3 58 -21z m1100 -59 c5 -19 4 -22 -4 -10 -7 10 -11
11 -11 3 0 -7 -4 -13 -10 -13 -5 0 -7 8 -3 18 5 14 3 15 -8 5 -14 -14 -39 -17
-39 -5 0 4 11 20 25 36 14 16 25 34 26 40 1 10 6 -4 24 -74z m-1091 -5 c24
-18 11 -37 -20 -29 -30 8 -31 -2 -2 -25 l22 -18 -31 4 c-25 4 -34 0 -49 -21
-14 -23 -15 -33 -5 -65 14 -50 14 -61 -3 -61 -22 0 -64 57 -72 96 -9 50 16
102 53 109 15 4 35 10 43 15 22 13 42 11 64 -5z m983 -1 c-3 -3 -12 -4 -19 -1
-8 3 -5 6 6 6 11 1 17 -2 13 -5z m-275 -31 c86 -3 162 -9 168 -13 8 -5 8 -18
-2 -48 -9 -31 -16 -39 -28 -32 -8 4 -73 15 -143 25 -114 16 -149 17 -315 6
-103 -6 -218 -18 -257 -25 -66 -13 -113 -8 -86 8 6 4 8 18 5 31 -5 22 -2 24
50 30 54 7 280 20 396 23 30 1 126 -1 212 -5z m243 -30 c-4 -10 -14 -38 -22
-63 -9 -25 -20 -49 -25 -55 -14 -16 -27 14 -18 44 23 74 33 91 52 91 15 0 18
-4 13 -17z m40 -35 c-14 -29 -25 -59 -25 -65 0 -7 -7 -13 -15 -13 -21 0 -19
22 6 81 15 33 27 49 40 49 17 0 16 -4 -6 -52z m71 29 c-14 -58 -37 -97 -56
-97 -22 0 -21 5 20 93 16 34 45 37 36 4z m19 -56 c-8 -17 -20 -31 -25 -31 -6
0 -1 17 10 37 11 21 21 47 21 58 1 13 3 11 6 -7 2 -15 -3 -40 -12 -57z m101
58 c25 -7 43 -17 41 -23 -4 -12 -94 -53 -100 -45 -5 5 4 79 10 79 2 0 24 -5
49 -11z m97 -71 c-49 -54 -183 -102 -378 -134 -139 -23 -384 -23 -549 0 -66 9
-120 15 -122 13 -2 -2 29 -11 69 -20 97 -22 286 -39 367 -33 36 3 100 8 142
11 126 9 320 51 416 91 28 12 4 -114 -38 -196 -37 -72 -123 -154 -203 -193
-98 -48 -204 -69 -357 -69 -330 -1 -510 75 -600 252 -44 86 -85 230 -65 230 2
0 37 -11 77 -24 125 -40 148 -38 34 3 -104 38 -126 51 -126 78 0 25 20 22 77
-11 113 -67 281 -97 547 -97 350 -1 625 50 698 128 19 21 24 22 26 8 2 -9 -5
-26 -15 -37z m-518 4 c76 -8 95 -15 95 -37 0 -22 -61 -29 -270 -28 -189 0
-310 12 -450 45 -55 12 -55 12 100 20 85 4 171 9 190 12 43 5 239 -2 335 -12z"/>
<path d="M2400 2891 c-63 -65 -131 -130 -150 -145 -19 -14 -30 -26 -24 -26 6
0 38 25 72 56 34 31 62 53 62 50 0 -2 -13 -31 -30 -62 -16 -32 -26 -62 -22
-66 5 -5 35 7 66 26 76 46 120 51 279 35 73 -8 141 -13 152 -11 11 1 30 2 43
2 28 0 29 29 2 88 -18 40 -46 61 -33 25 5 -14 1 -13 -16 4 -31 32 -61 38 -196
37 -84 0 -133 -5 -164 -17 l-44 -16 44 47 c51 53 84 92 78 91 -2 0 -56 -54
-119 -118z"/>
<path d="M2534 2679 c-34 -10 -67 -26 -74 -34 -17 -20 -5 -19 60 7 46 18 75
22 173 23 102 0 114 2 90 12 -44 19 -179 15 -249 -8z"/>
<path d="M2548 2636 c-98 -35 -168 -93 -168 -141 0 -18 24 -18 88 1 21 6 22 6
7 -22 -9 -19 -15 -57 -15 -107 0 -85 17 -132 64 -176 18 -17 22 -27 15 -32
-33 -20 44 -49 126 -48 62 1 117 20 130 45 6 10 22 37 37 59 62 93 62 210 0
327 -2 4 12 8 30 10 24 2 34 8 36 24 11 75 -203 112 -350 60z m59 -148 c42
-39 26 -99 -32 -118 -28 -9 -39 -9 -50 0 -27 22 -16 78 23 123 20 22 31 22 59
-5z"/>
<path d="M4250 2323 c-39 -44 -84 -138 -76 -158 10 -26 25 -16 37 24 10 34 16
40 43 43 35 3 38 20 6 28 -21 5 -21 6 9 47 17 24 31 45 31 48 0 15 -22 1 -50
-32z"/>
<path d="M2000 2195 c0 -3 11 -28 25 -55 l25 -50 -27 0 -28 -1 24 -19 c13 -11
28 -20 35 -20 6 0 18 -19 26 -42 8 -23 21 -43 28 -46 33 -11 -7 125 -58 197
-26 36 -50 53 -50 36z"/>
<path d="M3337 2134 c-118 -35 -279 -56 -358 -46 -37 4 -76 5 -88 1 -61 -23
-88 -191 -44 -275 29 -55 99 -115 159 -137 72 -26 194 -32 283 -13 213 45 284
171 216 383 -29 89 -46 114 -73 112 -9 -1 -52 -12 -95 -25z m133 -61 c56 -147
49 -238 -24 -309 -62 -60 -132 -79 -282 -79 -114 0 -123 2 -179 30 -37 19 -72
46 -92 73 -43 57 -42 68 5 64 20 -2 48 1 62 6 21 8 15 11 -42 17 -52 6 -67 11
-71 25 -8 29 11 113 32 140 18 24 22 25 114 21 104 -3 265 18 362 48 90 29 91
28 115 -36z"/>
<path d="M3584 946 c-58 -40 -124 -100 -124 -112 0 -32 129 29 157 75 21 33
-2 33 -33 0 -30 -31 -92 -70 -79 -49 4 6 34 31 67 55 32 23 56 45 51 48 -4 3
-22 -5 -39 -17z"/>
<path d="M2810 946 c0 -2 25 -21 55 -41 59 -41 68 -61 11 -26 -41 26 -58 12
-21 -17 44 -35 129 -39 107 -6 -8 12 -135 94 -146 94 -3 0 -6 -2 -6 -4z"/>
<path d="M3278 1139 c-21 -12 -23 -32 -5 -48 18 -15 50 9 46 34 -5 23 -19 27
-41 14z"/>
<path d="M2878 503 c7 -3 16 -2 19 1 4 3 -2 6 -13 5 -11 0 -14 -3 -6 -6z"/>
<path d="M2432 4017 c6 -74 56 -173 113 -226 41 -37 75 -53 75 -33 0 4 -24 31
-53 59 -60 59 -106 141 -114 203 -9 64 -26 62 -21 -3z"/>
<path d="M2489 3787 c15 -18 51 -23 51 -7 0 6 -6 10 -14 10 -8 0 -23 3 -33 7
-16 6 -16 5 -4 -10z"/>
<path d="M1668 3063 c-21 -2 -38 -8 -38 -13 0 -11 91 -1 105 11 9 9 4 9 -67 2z"/>
<path d="M1762 2320 c0 -19 2 -27 5 -17 2 9 2 25 0 35 -3 9 -5 1 -5 -18z"/>
<path d="M1980 1647 c-52 -46 -102 -92 -110 -103 -8 -10 21 13 65 52 44 40 96
85 115 102 19 17 33 31 30 32 -3 0 -48 -38 -100 -83z"/>
<path d="M4460 1571 c0 -6 4 -13 10 -16 6 -3 7 1 4 9 -7 18 -14 21 -14 7z"/>
<path d="M4481 1524 c0 -11 3 -14 6 -6 3 7 2 16 -1 19 -3 4 -6 -2 -5 -13z"/>
<path d="M1843 1508 c-15 -20 -25 -38 -20 -38 3 0 12 11 21 25 17 26 16 35 -1
13z"/>
<path d="M4486 1443 c-3 -27 -15 -63 -27 -82 -11 -18 -18 -35 -16 -38 11 -10
48 70 54 116 3 28 3 51 1 51 -3 0 -8 -21 -12 -47z"/>
<path d="M1806 1445 c-3 -9 -6 -22 -5 -28 0 -7 5 -1 10 12 5 13 8 26 5 28 -2
2 -6 -3 -10 -12z"/>
<path d="M1793 1350 c0 -30 2 -43 4 -27 2 15 2 39 0 55 -2 15 -4 2 -4 -28z"/>
<path d="M1801 1280 c0 -8 4 -22 9 -30 12 -18 12 -2 0 25 -6 13 -9 15 -9 5z"/>
<path d="M1837 1199 c10 -17 24 -36 32 -42 8 -7 2 7 -14 31 -32 49 -45 57 -18
11z"/>
</g>
</svg>
